<svg width="78" height="78" viewBox="0 0 78 78" fill="none" xmlns="http://www.w3.org/2000/svg"><path d="M38.636 66.609C53.749 66.609 66 54.359 66 39.248S53.749 11.887 38.636 11.887c-15.113 0-27.364 12.25-27.364 27.36 0 15.112 12.251 27.362 27.364 27.362z" fill="#5BC2C2"/><path fill-rule="evenodd" clip-rule="evenodd" d="M56.678 30.516c-.415.306-.9.5-1.412.567l-4.853.63a3.04 3.04 0 00-1.246.455l-4.055 2.594a3.04 3.04 0 00-1.363 3.046l1.453 8.982a3.04 3.04 0 01-.45 2.138l-3.217 4.968a3.04 3.04 0 01-1.985 1.334l-1.525.29a3.04 3.04 0 01-1.92-.264l-.25-.124a3.04 3.04 0 01-1.629-2.127l-.739-3.694a3.04 3.04 0 00-1.481-2.048l-6.172-3.501a3.04 3.04 0 01-1.54-2.645v-4.255a3.04 3.04 0 011.229-2.442l5.022-3.726a3.04 3.04 0 011.336-.561l3.123-.495a3.04 3.04 0 002.563-3.119l-.01-.268a3.04 3.04 0 00-2.823-2.917l-2.875-.206a3.047 3.047 0 01-.552-.09L19.292 19.9a27.577 27.577 0 0110.422-6.519 27.13 27.13 0 0112.156-1.298 27.303 27.303 0 0111.518 4.176 27.97 27.97 0 018.632 8.835l.331 1.242-5.673 4.18z" fill="#CBF4A2"/><path d="M29.985 10.667c.356 1.64-1.264 5.202-2.03 6.755a.675.675 0 01-1.04.226c-1.34-1.096-4.293-3.664-4.649-5.304a3.95 3.95 0 117.719-1.677z" fill="#F78B69"/><path d="M45.543 41.3c-.267 1.658-3.075 4.382-4.354 5.55a.675.675 0 01-1.05-.17c-.849-1.509-2.661-4.977-2.395-6.634a3.95 3.95 0 117.8 1.254z" fill="#F78B69"/><path d="M62.656 19.229c-.524 1.595-3.725 3.845-5.172 4.796a.675.675 0 01-1.01-.332c-.602-1.624-1.846-5.333-1.323-6.928a3.95 3.95 0 017.505 2.464z" fill="#F78B69"/></svg>