<svg width="78" height="78" fill="none" xmlns="http://www.w3.org/2000/svg"><path d="M46.548 42.493c-2.546 1.82-7.026 2.534-10.007 1.593l-26.16-6.062c-.116-.739-.441-2.86-.591-3.757-.151-.91.396-1.93 1.676-2.846L32.21 16.586c2.546-1.82 7.026-2.534 10.007-1.593l24.287 7.665c1.49.47 2.324 1.265 2.466 2.17l.595 3.773-23.016 13.892z" fill="#E75D54"/><path d="M37.748 19.186l-.699-4.436s2.186-.703 5.166.238l24.288 7.665c1.49.47 2.324 1.265 2.466 2.17l.595 3.775-31.816-9.412z" fill="#FF6F5B"/><ellipse rx="1.873" ry="1.883" transform="rotate(-9.047 123.715 -223.74) skewX(-.094)" fill="#FF6F5B"/><path d="M32.789 20.263c2.545-1.82 7.026-2.534 10.006-1.593l24.288 7.665c2.98.94 3.333 3.18.788 5L47.128 46.17c-2.546 1.82-7.026 2.534-10.007 1.593l-24.288-7.665c-2.98-.94-3.333-3.18-.787-5l20.743-14.835z" fill="#A83939"/><ellipse rx="17.479" ry="8.786" transform="rotate(-9.047 254.31 -237.825) skewX(-.094)" fill="#E75D54"/><path d="M60.239 50.384c.771 4.894-6.342 10.094-15.888 11.614-9.546 1.52-17.91-1.216-18.681-6.11-.692-4.391-2.38-16.184-2.38-16.184l34.52-5.481s1.658 11.267 2.429 16.161z" fill="#E75D54"/><path d="M46.637 35.494c-.42-2.666 2.03-4.892 4.641-4.216a3.738 3.738 0 012.756 3.038l1.536 9.75a.572.572 0 01-.784.612c-2.035-.838-3.5-1.245-5.34-1.482-.947-.122-1.727-.828-1.875-1.773l-.934-5.929z" fill="#FF6F5B"/><path d="M44.175 60.879c4.021-.64 7.634-1.91 10.227-3.513 1.293-.8 2.406-1.727 3.173-2.768.771-1.05 1.265-2.326 1.047-3.71-.218-1.384-1.08-2.445-2.136-3.203-1.05-.752-2.393-1.288-3.869-1.647-2.958-.718-6.784-.804-10.806-.164-4.022.64-7.635 1.911-10.228 3.513-1.293.8-2.406 1.727-3.172 2.768-.772 1.05-1.266 2.326-1.048 3.71.218 1.384 1.08 2.445 2.136 3.203 1.05.753 2.393 1.288 3.869 1.647 2.959.718 6.785.804 10.806.164z" fill="#7A3834" stroke="#E75D54" stroke-width="3.369"/><path fill="#E3B235" d="M17.525 27.211l2.679.47-3.29 18.75-2.68-.47z"/><path d="M18.552 38.84c0-.004 0-.008.002-.012l.494-2.817c.046-.261-.282-.456-.513-.325l-.018.01-1.609.904a3.682 3.682 0 00-1.826 2.573l-.001.005-.443 2.521c-.047.27.301.464.529.313.09-.06.184-.117.28-.17l1.61-.904a3.019 3.019 0 001.495-2.098zm1.05-5.982l-.003.012a3.019 3.019 0 01-1.495 2.098l-1.61.903c-.095.054-.188.11-.28.17-.227.151-.575-.043-.528-.312l.407-2.316v-.004a3.84 3.84 0 011.809-2.629l1.663-.998c.23-.138.567.055.52.32l-.483 2.756zm-2.892-2.96c-.048.27.304.465.531.31.074-.05.15-.098.226-.144l1.663-.998a3.24 3.24 0 001.524-2.206l.002-.013.36-2.051a.281.281 0 00-.228-.325.292.292 0 00-.202.04 3.808 3.808 0 01-.118.068l-1.609.903a3.681 3.681 0 00-1.826 2.574l-.001.004-.323 1.838zm1.822 23.969c-.24 1.366-2.36 2.135-4.737 1.718-2.377-.417-4.11-1.862-3.87-3.228.24-1.366 3.97-9.854 6.347-9.437 2.377.417 2.5 9.582 2.26 10.947z" fill="#F5CB60"/><ellipse cx="14.383" cy="52.876" rx="3.36" ry="1.97" transform="matrix(.98493 .17277 -.17294 .98496 9.361 -1.69)" fill="#ECB833"/></svg>