<svg width="78" height="78" viewBox="0 0 78 78" fill="none" xmlns="http://www.w3.org/2000/svg"><path d="M21.821 60.32V48.665c0-.635-.123-1.264-.364-1.852a18.44 18.44 0 01-.873-11.246l1.088-4.577 4.662 9.599-.767 7.114-.791 13.546-.465 2.682-3.95.42 1.065-2.261c.26-.554.395-1.159.395-1.77z" fill="#AA6533"/><path d="M52.796 22.395c3.927 2.104 4.759 10.973-5.398 13.199 0 0 4.711-6.472 1.918-8.608-2.07-1.584-5.018-.433-6.404.268-.315.16-.702-.102-.625-.447 1.21-5.412 6.776-6.411 10.509-4.412z" fill="#F3E0B1"/><path d="M51.227 22.978c3.927 2.104 3.612 9.419-3.83 12.616 0 0 4.712-6.471 1.92-8.608-2.093-1.6-5.079-.409-6.447.29-.307.157-.687-.085-.622-.424.843-4.396 5.277-5.857 8.979-3.874z" fill="#CD7331"/><path d="M43.098 45.737l-2.264-10.574 5.477-4.644c2.032 3.812 1.535 5.792 1.487 12.763l-1.23 17.647.123 2.566-1.434.971-2.096-.189.588-2.669c.1-.45.138-.913.115-1.374l-.688-13.9a3.73 3.73 0 00-.078-.597z" fill="#AA6533"/><path fill-rule="evenodd" clip-rule="evenodd" d="M43.722 57.37l.142-.13c.275-.254.505-.552.68-.883l2.243-4.252c.119-.226.267-.415.435-.57l-.654 9.395.123 2.566-1.434.971-2.096-.189.588-2.669c.1-.45.138-.913.115-1.374l-.142-2.865z" fill="#EBD296"/><path d="M50.017 30.977c2.845 2.719 4.177 6.33 4.452 7.143a.394.394 0 01-.033.321l-4.46 7.93s-2.232-4.828-7.186-3.986c-4.954.84-7.95 5.047-11.238 4.645-1-.122-2.12-.217-3.269-.255-3.858-.128-8.364-2.38-8.765-6.22-.277-2.644-.1-4.87.401-7.404.176-.889.036-1.807-.26-2.663-.687-1.979-.84-4.226-1.009-5.226-.208-1.227-2.526-2.245-2.526-2.245l9.544-7.972s2.124 7.495 3.56 9.532c1.436 2.036 2.845 3.601 6.993 4.337 4.148.736 10.572-1.019 13.796 2.063z" fill="#CD7331"/><path fill-rule="evenodd" clip-rule="evenodd" d="M50.185 46l-.21.371s-.421-.912-1.305-1.875c.545.449 1.053.952 1.515 1.504zm-6.092-3.71a6.724 6.724 0 00-1.303.096c-2.463.418-4.375 1.721-6.12 2.911-1.765 1.203-3.359 2.29-5.181 2.23-.955-.032-1.948-.117-2.942-.202l-.229-.019c-3.847-.327-8.398-2.91-8.8-6.75-.276-2.644-.1-4.87.402-7.404.175-.889.045-1.81-.265-2.661-.866-2.383-1.45-5.817-1.623-6.838-.208-1.227-1.908-.635-1.908-.635l4.465-3.73c.459.367.859.812.94 1.29.178 1.052 2.148 7.466 3.446 10.646.342.84.466 1.763.262 2.646-.456 1.97-.747 3.346-.719 4.978.067 3.86 4.867 6.74 8.628 5.87 1.319-.304 2.8-.781 4.486-1.587 2.177-1.04 4.403-1.262 6.461-.842zM25.225 15.415l.484-.227a40.634 40.634 0 01-.041-.143l-.443.37z" fill="#F3E0B1"/><path d="M28.78 48.132l-3.924-7.591a3.324 3.324 0 01-.365-1.73l.095-1.55 9.865 7.064a2.306 2.306 0 00-1.586 1.95l-.227 2.126-.791 12.848-.487 2.759a.416.416 0 01-.41.343h-2.835a.416.416 0 01-.376-.593l.568-1.206a6.442 6.442 0 00.613-2.743V48.704c0-.2-.048-.395-.14-.572z" fill="#CD7331"/><path d="M27.901 64.138c-.428.033-.705-.465-1.026-.182-.32.282-.255.66-.336 1.077a.694.694 0 00.193.638.924.924 0 00.579.236h1.641c.287.014.575-.03.844-.132.27-.1.695-.267.901-.466.668-.648.763-1.839.763-1.839-2.313-.436-2.538.263-3.559.668z" fill="#F8E6B9"/><path d="M26.1 64.927c0 .74 1.129 1.34 2.438 1.34 1.309 0 2.532-.848 2.635-2.065 0-.74-1.326-.615-2.635-.615-1.31 0-2.438.6-2.438 1.34z" fill="#F8E6B9"/><path d="M28.095 62.638h.47a2.1 2.1 0 011.543.692c.409.443.639 1.043.639 1.67a.667.667 0 01-.169.44.575.575 0 01-.186.135.537.537 0 01-.22.048H26.85a.722.722 0 01-.53-.238.847.847 0 01-.22-.574 2.318 2.318 0 01.149-.83c.1-.264.246-.504.431-.706.186-.202.406-.362.649-.472.243-.109.503-.165.766-.165z" fill="#F8E6B9"/><path d="M20.944 62.644h.468a2.09 2.09 0 011.535.688c.407.44.636 1.039.636 1.662a.664.664 0 01-.168.439.573.573 0 01-.186.134.535.535 0 01-.219.047h-3.305a.718.718 0 01-.528-.237.843.843 0 01-.218-.57 2.305 2.305 0 01.148-.827c.099-.263.245-.501.43-.702.184-.201.403-.36.645-.47.241-.108.5-.164.762-.164z" fill="#DBC48E"/><path d="M20.842 64.122c-.445.032-.89-.45-1.223-.168-.333.283-.56.367-.645.784-.025.113-.02.525.016.637a.696.696 0 00.185.294c.14.137.401.234.602.237h2.002c.3.014.599-.03.88-.132.28-.1.722-.267.936-.466.696-.648.794-1.839.794-1.839-2.038-.2-1.855-.055-3.547.653z" fill="#DBC48E"/><path d="M18.99 65.259c0 .557 1.096 1.009 2.366 1.009s2.556-.998 2.556-1.555c0-.557-1.286-.463-2.556-.463s-2.366.452-2.366 1.009z" fill="#DBC48E"/><path d="M43.332 63.473a2.032 2.032 0 00-1.176.485c-.32.282-.538.66-.62 1.077a.694.694 0 00.194.638.923.923 0 00.578.236h1.925c.287.015.575-.03.844-.131.27-.101.695-.268.9-.467.67-.648.714-1.838.714-1.838-1.152.581-2.158.741-3.36 0z" fill="#EBD296"/><path d="M41.552 65.301c0 .534 1.052.967 2.273.967s2.458-.956 2.458-1.49c0-.533-1.237-.443-2.458-.443-1.22 0-2.273.433-2.273.966z" fill="#EBD296"/><path d="M50.823 48.338l-1.58-2.874a6.235 6.235 0 00-1.712-1.977l-.697-.525 5.688-8.85c2.47 3.86 2.78 5.221 2.742 11.957-.001.178.01.36.036.535l2.078 14.327.108 2.611-1.722.737h-1.793l.423-1.919a5.612 5.612 0 00-.11-2.83L51.11 49.018a3.534 3.534 0 00-.286-.68z" fill="#CD7331"/><path d="M51.631 50.725a3.173 3.173 0 013.392 2.315l.213.773c.223.812.7 1.53 1.362 2.05l.103.082.676 4.982.109 2.612-1.722.737h-1.793l.423-1.921a5.61 5.61 0 00-.108-2.827l-2.655-8.803z" fill="#F8E6B9"/><path d="M25.651 7.158c-1.888 2.934-3.847 5.056-5.46 7.056l6.573 7.511c3.224-6.902 3.165-10.415 1.055-14.538-.439-.857-1.647-.838-2.168-.029z" fill="#D67F40"/><path d="M25.713 9.99c-.936 1.647-1.639 2.696-2.576 3.858l3.605 5.251c1.692-4.274 1.98-6.646 1.027-9.08-.355-.906-1.575-.875-2.056-.029z" fill="#A36131"/><path d="M15.226 7.4c1.895 3.192 4.107 6.293 5.51 8.392l-5.573 4.911c-2.389-4.57-3.054-9.8-1.78-13.273.308-.839 1.388-.8 1.844-.03z" fill="#D67F40"/><path d="M14.986 9.877c1.136 1.945 2.443 3.907 3.281 5.162l-3.384 2.982c-1.212-4.105-1.826-6.352-1.156-8.144.211-.566.955-.521 1.26 0z" fill="#A36131"/><path d="M27.848 20.552l-.095-1.653a5.885 5.885 0 00-4.066-5.261 4.263 4.263 0 00-1.31-.206h-2.793c-1.35 0-2.65.516-3.633 1.442l-1.613 1.521a3.326 3.326 0 00-1.044 2.42c0 .594-.16 1.177-.46 1.689l-.581.985a3.25 3.25 0 00-.06 3.196l.05.091a3.57 3.57 0 003.26 1.872l6.992-.234a5.547 5.547 0 005.353-5.862z" fill="#D67F40"/><path d="M13.243 20.46a3.275 3.275 0 00-1.414 2.088 3.42 3.42 0 003.473 4.098l2.888-.083c.714-.026 1.27-.631 1.27-1.346a6.168 6.168 0 00-1.483-4.011l-.956-1.117a1.356 1.356 0 01-.107-1.62l.146-.226c.382-.587.666-1.23.843-1.908l.042-.16a.49.49 0 00-.473-.614.775.775 0 00-.744.558l-.048.166c-.208.71-.531 1.38-.957 1.985l-.518.736c-.145.206-.329.384-.54.522l-1.422.933z" fill="#FFF5D8"/><path d="M14.387 20.535c.696 0 1.221.3 1.587.609.373.314.42 1.021.143 1.423-.562.815-1.519 1.987-2.38 1.987-.943 0-1.393-1.442-1.572-2.264-.078-.356.021-.724.295-.963.398-.348 1.075-.792 1.927-.792z" fill="#381C18"/><ellipse rx="1.033" ry=".703" transform="matrix(-0.934373 -0.356297 -0.356297 0.934373 14.8086 21.677)" fill="#6F4640"/><ellipse cx="20.79" cy="18.4" rx="1.401" ry="1.253" transform="rotate(18.8942 20.7896 18.4004)" fill="#381C18"/><path fill-rule="evenodd" clip-rule="evenodd" d="M13.713 17.21c-.33.422-.501.95-.48 1.49l.026.604c.287.043.618-.015.925-.184.62-.341.908-1.006.644-1.485-.197-.357-.644-.51-1.115-.424z" fill="#381C18"/><path d="M54.147 63.473a2.032 2.032 0 00-1.176.485c-.32.282-.538.66-.62 1.077a.694.694 0 00.193.638.923.923 0 00.579.236h1.925c.287.015.575-.03.844-.131.27-.101.695-.268.9-.467.67-.648.714-1.838.714-1.838-1.152.581-2.158.741-3.36 0z" fill="#F8E6B9"/><path d="M52.366 65.301c0 .534 1.053.967 2.274.967s2.458-.956 2.458-1.49c0-.533-1.237-.443-2.458-.443-1.22 0-2.274.433-2.274.966z" fill="#F8E6B9"/><path d="M60.674 65.171a1.556 1.556 0 01-1.01-.476 2.58 2.58 0 01-.642-1.275c-.249-1.118-1.036-5.635-2.005-11.807 0-.895.937-2.374 1.724-2.374.787 0 3.481-1.36 3.481-.46l-.115 14.77c0 .89-.644 1.622-1.433 1.622z" fill="#D5C3B3"/><path d="M58.152 63.57H49.87c-.73 0-1.323.593-1.323 1.323v.293c0 .73.592 1.323 1.323 1.323h8.282c.73 0 1.323-.593 1.323-1.323v-.293c0-.73-.592-1.323-1.323-1.323z" fill="#EB6E52"/><path d="M50.364 65.296a5.557 5.557 0 100-11.114 5.557 5.557 0 000 11.114z" fill="#B8A593"/><path d="M38.53 65.868a2.5 2.5 0 100-4.998 2.5 2.5 0 000 4.998z" fill="#FFF7EF"/><path d="M53.241 63.57H42.477c-.8 0-1.447.648-1.447 1.448v.043c0 .8.648 1.448 1.447 1.448H53.24c.8 0 1.448-.648 1.448-1.448v-.043c0-.8-.648-1.448-1.448-1.448z" fill="#ECE1D8"/><path d="M57.813 45.354l-4.726-1.294-4.326 4.057a38.772 38.772 0 01-5.548 4.324l-1.457.937c-2.648 1.705-2.761 4.243-3.145 7.363l-.815.285c-.31 2.612.941 4.872 3.571 4.833l3.15-.048 14.228-11.527-.932-8.93z" fill="#fff"/><path d="M56.29 44.575l-4.729-1.293-.446.663c-1.61 2.36-5.428 4.713-7.069 5.65a15.161 15.161 0 00-2.531 1.782c-3.282 2.907-4.16 6.156-4.48 8.853a4.346 4.346 0 004.372 4.86l3.152-.05 3.636-3.62a27.97 27.97 0 008.081-16.845h.014z" fill="#ECE1D8"/><path d="M45.82 50.266a5.74 5.74 0 00-1.003-1.131c-1.19.63-1.656 1.019-1.656 1.019.528.251 1.026.56 1.486.921.666.527 1.259 1.005 1.259 1.005a.458.458 0 00.68-.555c-.229-.435-.485-.856-.766-1.26z" fill="#D1C6BD"/><path d="M42.636 52.074c-.257-.36-.46-.684-.8-.968-.566.49-.959.83-1.09 1.014 0 0 .408.337.825.645.605.45 1.143.858 1.143.858a.435.435 0 00.498-.02.389.389 0 00.141-.208.37.37 0 00-.02-.246c-.209-.372-.441-.73-.697-1.075z" fill="#D1C6BD"/><path d="M50.862 50.738a14.689 14.689 0 00-.73-1.626c-.43-.847-1.24-1.681-2.014-2.207-1.085.76-1.573 1.13-1.824 1.28a9.529 9.529 0 012.31 1.717c.721.73 1.36 1.394 1.36 1.394a.552.552 0 00.898-.558z" fill="#D1C6BD"/><path d="M45.76 64.56a5.557 5.557 0 100-11.115 5.557 5.557 0 000 11.115z" fill="#ECE1D8"/><path d="M54.118 63.318h.432a2.531 2.531 0 012.532 2.531.668.668 0 01-.668.668h-4.586a.14.14 0 01-.13-.087.14.14 0 01-.01-.054v-.633a2.43 2.43 0 012.43-2.43v.005z" fill="#66463D"/><path d="M36.763 65.103C38.24 67.02 46.494 67.925 51.069 63c.396-.423.403-.658.078-1.04-.324-.382-1.222-.37-1.691.04-4.517 3.927-10.038 1.3-10.295 1.15-.88-.54-1.625-.89-2.56-.23-.43.294-.222 1.675.162 2.183z" fill="#FFF7EF"/><path d="M37.05 61.357c.295.578.761 1.05 1.335 1.351l.23.122.582.92-.1.385-1.883-.152-.163-2.626z" fill="#FFF7EF"/><path d="M48.742 64.67a.92.92 0 01-.552-1.663l.83-.617a4.577 4.577 0 001.71-2.559 1.076 1.076 0 10-2.119-.262v.49a.92.92 0 11-1.84 0v-.49a2.923 2.923 0 115.752.71 6.427 6.427 0 01-2.4 3.593l-.83.617a.921.921 0 01-.55.181z" fill="#FFF7EF"/><path d="M61.008 63.32h.545a2.531 2.531 0 012.531 2.532.666.666 0 01-.667.667h-3.852a.87.87 0 01-.87-.87 2.313 2.313 0 012.313-2.329z" fill="#66463D"/><path d="M61.534 41.176c-.66-1.215-1.631-1.261-2.51-1.325.24.269.426.581.55.92l-3.516 4.358c0 4.994-2.647 7.539-3.03 7.937l.478 5.465c6.673-3.956 8.875-6.413 8.875-11.404v-4.559c-.198-.6-.467-.695-.847-1.392z" fill="#fff"/><path d="M56.166 65.173c-.509 0-1.043.794-1.14.69 0 0-.46-2.202-.513-2.448-.248-1.118-1.035-5.635-2.006-11.807 0-.895 4.413-6.56 5.2-6.56 0 0-.11 8.194-.11 9.09l.294 9.935c0 .902-.938 1.1-1.725 1.1z" fill="#ECE1D8"/><path d="M57.005 63.32h.546a2.531 2.531 0 012.531 2.532.668.668 0 01-.667.667H55.56a.87.87 0 01-.87-.87 2.314 2.314 0 012.315-2.329z" fill="#8C6356"/><path d="M59.958 34.924c.965-2.173 2.409-3.512 4.673-4.549.642-.294 1.34.23 1.46.93.255 1.474.84 3.095.29 7.798l-6.423-4.18z" fill="#DED2C6" stroke="#DED2C6" stroke-width=".99"/><path d="M62.56 35.227a1.343 1.343 0 01-.395-1.58c.48-1.093 1.21-2.247 2.67-3.204.418-.273.947-.037 1.069.447.618 2.46.862 4.328.664 6.125a.73.73 0 01-1.195.488l-2.813-2.276z" fill="#BE9898" stroke="#DED2C6" stroke-width=".99"/><path d="M67.608 39.557c.69 3-3.326 7.657-7.92 8.117-4.595.46-9.43-3.263-9.376-6.383.015-.901.45-1.527 1.316-2.794 1.464-2.138 3.44-5.024 6.606-5.326 3.039-.29 5.422 1.975 7.539 3.992 1.098 1.055 1.648 1.584 1.835 2.395z" fill="#DED2C6"/><path fill-rule="evenodd" clip-rule="evenodd" d="M60.123 33.215c.62 2.147.268 4.725-1.158 6.976-1.767 2.79-4.692 4.303-7.39 4.101-.87-.992-1.39-2.094-1.371-3.128.015-.89.44-1.512 1.285-2.75l.03-.044c1.464-2.138 3.44-5.024 6.607-5.326a5.6 5.6 0 011.997.171z" fill="#F0E6DE"/><path d="M50.51 31.466c-1.166 3.289-.48 5.362.834 7.983a.63.63 0 00.92.235l4.945-3.376a.645.645 0 00.14-.93c-1.467-1.867-2.189-2.998-5.502-4.472a.987.987 0 00-1.337.56z" fill="#F0E6DE"/><path d="M51.646 32.408c-.54 2.11-.345 3.787.303 5.638a.579.579 0 001.033.135c.695-1.01 1.305-1.98 2.266-2.59.363-.23.516-.73.248-1.066-.87-1.088-1.492-1.59-3.287-2.386a.408.408 0 00-.563.27z" fill="#BE9898"/><ellipse cx="56.143" cy="40.547" rx="1.182" ry="1.057" transform="rotate(11.7894 56.1434 40.5469)" fill="#62433A"/><ellipse rx="1.173" ry="1.049" transform="matrix(-0.898802 0.438354 0.438354 0.898802 62.9048 39.6997)" fill="#62433A"/><path fill-rule="evenodd" clip-rule="evenodd" d="M62.488 42.38c-1.312-.791-3.911-.53-5.04.506-.809.741-.944 1.85-.304 2.477.641.626 1.816.533 2.625-.209a.777.777 0 01.894-.09c.94.565 2.11.424 2.614-.318.504-.74.15-1.8-.79-2.367z" fill="#FDF4EB"/><path d="M60.21 44.665c-1.033 1.001-1.862.628-1.862.628m1.861-.628c1.2.844 1.868.342 1.868.342m-1.868-.342l-.085-1.36" stroke="#C8A79D" stroke-width=".492" stroke-linecap="round" stroke-linejoin="round"/><path d="M60.922 41.495c-.73-.08-1.174-.041-1.908.182-.41.126-.537.64-.247.957l.741.812a.816.816 0 001.31-.144l.533-.927c.21-.365-.01-.833-.43-.88z" fill="#BA7D7D"/><path d="M60.277 41.678c-.493 0-.923.099-1.292.258-.15.064-.187.255-.083.382.349.431.997.46 1.383.06l.184-.19c.187-.194.076-.51-.192-.51z" fill="#D99191"/><path d="M48.611 60.06v-.49a1.072 1.072 0 01.414-.85c.132-.103.097-.648-.16-1.033-.259-.384-.74-.605-.974-.42a2.898 2.898 0 00-1.125 2.3v.49a.92.92 0 00.069.346l.096.179a.92.92 0 001.68-.525v.003z" fill="#fff"/></svg>