<svg width="89" height="79" viewBox="0 0 89 79" fill="none" xmlns="http://www.w3.org/2000/svg"><g clip-path="url(#clip0_1908_25454)"><path d="M76.154 24.247c.915-4.735-2.59-9.176-7.407-9.387l-42.31-1.852a7.896 7.896 0 00-8.077 6.287L12.518 47.51c-.983 4.744 2.499 9.245 7.337 9.487l41.377 2.067a9.359 9.359 0 009.656-7.571l5.266-27.245z" fill="#537E9C"/><path d="M72.647 23.58c.766-3.774-1.996-7.35-5.842-7.563L25.89 13.754a6.317 6.317 0 00-6.54 5.05l-5.338 26.301c-.766 3.775 1.996 7.35 5.842 7.564L60.77 54.93a6.317 6.317 0 006.539-5.05l5.338-26.3z" fill="#555D61" stroke="#C6DBEA" stroke-width="3.158"/><path d="M43.59 20.937l-15.867 18.26c-.653.77-.143 1.954.865 2.009l17.962 1.07" stroke="#fff" stroke-width="1.223" stroke-linecap="round"/><path d="M57.588 40.826L45.425 21.242c-.576-.853-1.884-.654-2.18.331l-6.158 18.585a1.22 1.22 0 001.102 1.57l18.744 1.198c1.008.055 1.22-1.264.655-2.1z" stroke="#fff" stroke-width="1.223"/><path d="M23.36 46.312l2.396-1.427m-2.397 1.427l1.959 1.757m-1.959-1.757l36.598 1.756m0 0l-2.445-1.64m2.445 1.64l-2.597 1.304" stroke="#fff" stroke-width="1.396" stroke-linecap="round" stroke-linejoin="round"/><path d="M28.043 20.55c.175.012.305.074.39.187a.55.55 0 01.121.404.935.935 0 01-.17.473l-2.462 3.69a.701.701 0 01-.273.247.63.63 0 01-.312.06.68.68 0 01-.442-.197.548.548 0 01-.17-.437.691.691 0 01.126-.343l2.085-3.085-1.826-.118c-.224-.015-.384-.07-.48-.164-.092-.094-.132-.228-.12-.404.01-.18.07-.31.179-.391.108-.086.272-.122.49-.108l2.864.186zm3.146 1.994c.316.021.592.11.826.267.24.152.419.36.539.622.125.257.177.549.156.875-.023.35-.126.654-.309.912-.183.257-.43.448-.741.575a2.375 2.375 0 01-1.06.151 3.096 3.096 0 01-.882-.19 2.422 2.422 0 01-.72-.413.722.722 0 01-.163-.209.601.601 0 01-.035-.259c.01-.15.06-.274.149-.371a.376.376 0 01.317-.14.493.493 0 01.18.04c.048.023.119.064.213.124l.141.082c.146.083.279.15.398.202.124.052.258.083.405.093.272.017.478-.023.616-.122.139-.103.216-.272.231-.505.014-.22-.043-.394-.171-.525-.129-.13-.314-.204-.558-.22a2.058 2.058 0 00-.404.01 2.65 2.65 0 00-.425.105.7.7 0 01-.334.06.516.516 0 01-.335-.14.412.412 0 01-.118-.33l.128-1.98c.014-.204.077-.356.191-.456.114-.1.271-.144.47-.131l2.265.147c.424.027.624.21.603.545-.022.34-.245.498-.669.47l-1.578-.102-.058.898a1.83 1.83 0 01.732-.085zm3.977.714c.185.012.317.054.395.128.083.074.12.181.111.323-.01.146-.06.252-.153.32-.087.067-.223.095-.408.083l-1.505-.098a.528.528 0 01-.357-.148.406.406 0 01-.112-.315c.01-.16.097-.314.258-.46l.888-.808c.146-.137.222-.254.228-.351.008-.112-.054-.173-.186-.181a.58.58 0 00-.237.036l-.135.042a1.5 1.5 0 01-.187.069.69.69 0 01-.162.004.314.314 0 01-.254-.156.46.46 0 01-.085-.277.541.541 0 01.051-.217.378.378 0 01.17-.142c.142-.07.3-.118.472-.146.173-.028.345-.036.515-.025.356.023.64.127.853.312.213.18.31.409.293.686a.973.973 0 01-.132.447c-.072.122-.208.265-.41.428l-.51.407.6.039z" fill="#ABDCFF"/><path d="M60.444 28.055c.083.16.105.32.066.477a.658.658 0 01-.33.42.673.673 0 01-.514.082.638.638 0 01-.422-.355l-.954-1.96-1.782 1.283c-.175.124-.353.164-.531.12a.687.687 0 01-.423-.322.67.67 0 01-.088-.524.67.67 0 01.271-.385l1.947-1.375-1.051-2.076a.673.673 0 01-.068-.469.643.643 0 01.32-.414.696.696 0 01.531-.086.638.638 0 01.423.355l.942 1.907 1.715-1.25a.593.593 0 01.523-.12.67.67 0 01.422.321c.11.167.142.34.098.518a.67.67 0 01-.27.385l-1.898 1.346 1.073 2.122zm3.22-1.429c.199.05.334.122.406.218.076.097.095.222.058.374-.04.158-.116.264-.23.32-.109.057-.263.06-.463.01l-1.624-.4a.587.587 0 01-.361-.232.45.45 0 01-.06-.367c.043-.173.167-.324.371-.452l1.129-.708c.186-.12.292-.234.318-.34.03-.12-.026-.198-.168-.233a.643.643 0 00-.266-.007 4.56 4.56 0 01-.155.02 1.678 1.678 0 01-.219.038.766.766 0 01-.177-.027.348.348 0 01-.247-.22.51.51 0 01-.038-.32.6.6 0 01.098-.226.418.418 0 01.214-.123c.168-.048.35-.07.544-.066.194.003.383.028.567.073.384.095.674.264.87.508.198.239.26.508.185.807a1.078 1.078 0 01-.231.462c-.102.12-.28.249-.53.387l-.638.345.646.16z" fill="#ABDCFF"/></g><path d="M58.22 61.684c.117.233.382.351.633.282l13.905-3.83a.547.547 0 00.345-.77l-2.62-5.276a.547.547 0 00-.605-.291l-14.33 3.053a.547.547 0 00-.375.78l3.046 6.053z" fill="#EC6A51"/><path d="M47.66 60.136l15.52-3.29 7.194-5.137L54.855 55l-7.195 5.136z" fill="#D4523B"/><path d="M50.926 66.616c.11.22.353.338.594.291l14.684-2.874a.547.547 0 00.384-.783l-3.056-6.07a.547.547 0 00-.594-.291l-14.684 2.874a.547.547 0 00-.383.782l3.055 6.071z" fill="#FF9071"/><path d="M65.895 63.696a.547.547 0 00.77.2l7.212-4.538a.547.547 0 00.189-.725l-3.434-6.266a.547.547 0 00-.77-.2l-7.212 4.538a.547.547 0 00-.188.726l3.433 6.265z" fill="#EC6A51"/><path d="M66.059 63.636a.547.547 0 00.78.216l7.209-4.536a.547.547 0 00.197-.709L74 58.123a.547.547 0 00-.78-.217l-7.209 4.536a.547.547 0 00-.197.71l.244.483z" fill="#D5523B"/><path d="M50.85 67.115a.547.547 0 00.61.287l14.567-3.327a.547.547 0 00.367-.779l-.231-.46a.547.547 0 00-.61-.287l-14.567 3.327a.547.547 0 00-.367.78l.231.459z" fill="#FF694B"/><ellipse rx="1.056" ry=".604" transform="matrix(0.768759 -0.639539 -0.639539 -0.768759 57.513 61.3623)" fill="#E88062"/><ellipse rx=".604" ry=".453" transform="matrix(0.768759 -0.639539 -0.639539 -0.768759 49.6093 61.0645)" fill="#E88062"/><ellipse rx=".604" ry=".453" transform="matrix(0.996932 0.0782766 0.0782766 -0.996932 53.8984 63.3881)" fill="#E88062"/><ellipse rx=".604" ry=".453" transform="matrix(0.996932 0.0782766 0.0782766 -0.996932 61.3617 57.9748)" fill="#E88062"/><ellipse rx=".604" ry=".453" transform="matrix(0.996932 0.0782766 0.0782766 -0.996932 61.3976 62.2658)" fill="#E88062"/><defs><clipPath id="clip0_1908_25454"><path fill="#fff" transform="translate(88.309 7.24268) rotate(90)" d="M0 0h64.483v88.216H0z"/></clipPath></defs></svg>