<svg width="78" height="78" viewBox="0 0 78 78" fill="none" xmlns="http://www.w3.org/2000/svg"><rect x="21.495" y="15.367" width="47.578" height="44.054" rx="8.811" transform="rotate(11.5716 21.4954 15.3672)" fill="#E6C78A"/><rect x="24.293" y="8.299" width="44.935" height="41.411" rx="7.489" transform="rotate(11.5716 24.2934 8.29913)" fill="#FFFDF2" stroke="#E6C78A" stroke-width="2.643"/><path d="M37.314 33.008c-.55.033-1.682-.394-1.741-1.38-.817-4.401 2.223-9.034 5.902-12.221.522-.526 1.624-.592 2.726-.658 1.131.427 1.741 1.379 1.8 2.364.207 3.45.354 5.913 1.545 7.326.58.46.64 1.445-.433 2.004-.521.525-1.623.591-2.233-.361-1.771-1.872-1.948-4.829-2.126-7.785-2.577 3.122-4.603 6.21-3.905 8.64.06.986-.433 2.005-1.535 2.07.551-.032.551-.032 0 0z" fill="#A0E65C"/><path d="M49.334 41.73c4.3-.258 7.332-3.676 7.074-7.976s-3.676-7.333-7.976-7.075-7.333 3.676-7.075 7.976c.226 3.763 3.676 7.333 7.977 7.075z" fill="#E43947"/><path d="M38.384 48.05c5.281-.316 9.781-4.825 9.433-10.634-.316-5.281-4.826-9.781-10.635-9.433-5.281.316-9.78 4.826-9.433 10.635.845 5.25 5.354 9.75 10.635 9.433z" fill="#FF614D"/><path d="M36.87 36.29c.38-1.986-.234-3.913-2.25-4.283-1.52-.4-3.42 1.187-3.8 3.173-.38 1.986.731 3.882 2.251 4.282 1.52.4 2.923-1.157 3.8-3.172z" fill="#FFA998"/></svg>