<svg width="78" height="79" viewBox="0 0 78 79" fill="none" xmlns="http://www.w3.org/2000/svg"><path d="M26.613 23.736c-1.803-1.201-4.333-.543-4.08 1.609.522 4.425 3.26 8.625 5.342 11.255 1.424 1.798 3.799 2.403 6.014 1.81l1.157-.31a5.256 5.256 0 003.785-6.146c-.7-3.368-4.722-5.441-8.05-6.309-1.285-.334-2.693-.927-4.168-1.909z" fill="#FEB8B5"/><ellipse rx="1.673" ry="5.381" transform="matrix(-0.825759 0.564023 0.564023 0.825759 27.8906 31.2939)" fill="#DA8493"/><circle cx="24.065" cy="41.596" r="3.601" fill="#3D424C"/><ellipse rx=".639" ry=".948" transform="matrix(0.973599 0.228265 -0.292806 0.956172 21.6653 40.2476)" fill="#C0CFDD"/><path d="M55.7 29.78c7.777 7.776 6.498 20.722-2.65 26.826l-9.145 6.103a15.372 15.372 0 01-21.116-21.616l6.315-9c6.222-8.867 18.937-9.973 26.596-2.314z" fill="#F2EDED"/><path fill-rule="evenodd" clip-rule="evenodd" d="M45.42 61.696l-1.517 1.012a15.372 15.372 0 01-23.772-14.814c4.654-1.286 10.4-.533 15.617 2.479 4.858 2.805 8.25 6.987 9.672 11.323z" fill="#FFCAC8"/><ellipse cx="34.015" cy="59.429" rx="1.05" ry="1.5" transform="rotate(-30 34.015 59.4292)" fill="#DA8493"/><path d="M59.638 23.736c1.803-1.201 4.333-.543 4.08 1.609-.522 4.425-3.26 8.625-5.342 11.255-1.424 1.798-3.799 2.403-6.014 1.81l-1.156-.31a5.256 5.256 0 01-3.786-6.146c.7-3.368 4.723-5.441 8.051-6.309 1.284-.334 2.692-.927 4.167-1.909z" fill="#FEB8B5"/><ellipse cx="58.361" cy="31.294" rx="1.673" ry="5.381" transform="rotate(34.3345 58.3608 31.2939)" fill="#DA8493"/><circle cx="39.255" cy="42.302" r="3.601" fill="#3D424C"/><ellipse rx="1.042" ry="1.238" transform="matrix(0.973599 0.228265 -0.292806 0.956172 37.9316 41.6225)" fill="#C0CFDD"/><ellipse rx=".628" ry=".623" transform="matrix(0.973599 0.228265 -0.292806 0.956172 40.5967 42.715)" fill="#F2EDED"/><path d="M43.543 27.697c-.24 3.369-5.777 7.219-8.184 7.219-1.834 0-3.95-1.4-4.851-4.197-.598-1.854.397-3.758 1.863-5.04l5.395-4.72c2.888-.481 6.018 3.369 5.777 6.738z" fill="#F2CD82"/><path d="M37.99 22.48c-1.49 3.13-3.066 4.168-5.877 5.036-.396.123-.826.143-1.205-.024-1.172-.518-2.1-1.684-2.521-3.757-.354-1.735.53-3.436 1.882-4.58l3.337-2.822c.49-.415 1.17-.561 1.748-.281 2.074 1.005 3.139 2.765 2.958 5.26-.029.405-.147.8-.322 1.168z" fill="#FFE28C"/><path d="M27.176 9.409c-1.771.777.457 10.401 1.926 11.55 1.47 1.149 5.751-1.237 5.774-3.85.022-2.614-5.93-8.478-7.7-7.7z" fill="#F2CD82"/><path fill-rule="evenodd" clip-rule="evenodd" d="M35.742 28.795c.444.768.006 1.85-.978 2.418-.983.568-2.14.406-2.583-.362-.443-.767-.005-1.85.978-2.418.984-.567 2.14-.405 2.584.362zm-2.448-6.433c.357.619.02 1.483-.754 1.93-.774.447-1.69.307-2.048-.313-.358-.619-.02-1.483.753-1.93.774-.447 1.691-.307 2.049.313zm-3.338-8.385a.89.89 0 00-1.712.489l.963 3.369a.89.89 0 001.711-.49l-.962-3.368z" fill="#fff"/></svg>