<svg width="144" height="144" fill="none" xmlns="http://www.w3.org/2000/svg"><ellipse opacity=".7" cx="78.433" cy="124.588" rx="43.343" ry="5.978" fill="#E2C372"/><path d="M83.747 70.987c-4.7 3.362-12.97 4.679-18.474 2.942L16.98 62.739c-.215-1.365-.816-5.28-1.093-6.938-.28-1.678.731-3.563 3.095-5.254L57.275 23.16c4.7-3.36 12.971-4.678 18.474-2.941l44.839 14.15c2.751.87 4.29 2.336 4.553 4.007l1.097 6.966-42.49 25.645z" fill="#F15146"/><path d="M67.501 27.961l-1.29-8.19s4.035-1.297 9.538.44l44.838 14.15c2.752.869 4.29 2.336 4.553 4.007l1.098 6.968-58.737-17.375z" fill="#FF6F5B"/><ellipse rx="3.457" ry="3.476" transform="rotate(-9.047 180.158 -402.962) skewX(-.094)" fill="#FF6F5B"/><path d="M58.345 29.95c4.7-3.361 12.971-4.678 18.474-2.941l44.839 14.15c5.503 1.737 6.154 5.87 1.454 9.231L84.818 77.777c-4.7 3.361-12.971 4.678-18.474 2.942L21.505 66.568c-5.503-1.737-6.154-5.87-1.454-9.23L58.345 29.95z" fill="#A71717"/><ellipse rx="32.269" ry="16.22" transform="rotate(-9.047 421.254 -428.966) skewX(-.094)" fill="#F15146"/><path d="M109.023 85.559c1.424 9.035-11.709 18.635-29.332 21.441-17.624 2.806-33.064-2.244-34.488-11.28-1.277-8.106-4.392-29.878-4.392-29.878l63.728-10.12s3.061 20.801 4.484 29.837z" fill="#F15146"/><path d="M83.911 58.07c-.775-4.92 3.75-9.03 8.57-7.783a6.901 6.901 0 015.087 5.61l2.836 18c.128.808-.691 1.44-1.448 1.129-3.758-1.548-6.463-2.3-9.857-2.737-1.75-.225-3.189-1.529-3.464-3.273l-1.724-10.945z" fill="#FF6F5B"/><path d="M79.365 104.934c7.425-1.182 14.094-3.528 18.881-6.486 2.388-1.475 4.443-3.187 5.858-5.11 1.425-1.936 2.336-4.294 1.934-6.848-.403-2.555-1.994-4.514-3.944-5.913-1.937-1.39-4.418-2.38-7.142-3.04-5.462-1.327-12.526-1.486-19.95-.304-7.426 1.182-14.095 3.528-18.882 6.486-2.387 1.475-4.442 3.187-5.857 5.11-1.425 1.936-2.336 4.294-1.934 6.849.403 2.555 1.994 4.514 3.944 5.913 1.937 1.389 4.418 2.379 7.142 3.04 5.462 1.326 12.525 1.485 19.95.303z" fill="#7E251F" stroke="#F15146" stroke-width="6.22"/><path fill="#E3B235" d="M30.166 42.777l4.945.868-6.074 34.615-4.946-.868z"/><path d="M32.061 64.247l.005-.022.912-5.2c.085-.484-.52-.843-.947-.6l-.033.018-2.97 1.667a6.797 6.797 0 00-3.372 4.752l-.002.008-.817 4.655c-.087.497.555.856.976.578.168-.11.34-.216.517-.315l2.97-1.668a5.574 5.574 0 002.761-3.873zM34 53.202l-.004.023a5.574 5.574 0 01-2.76 3.873l-2.971 1.667c-.177.1-.35.205-.517.316-.421.277-1.063-.081-.976-.578l.75-4.275.002-.009a7.09 7.09 0 013.338-4.853l3.07-1.842c.425-.255 1.046.102.96.59L34 53.202zm-5.34-5.464c-.087.5.563.858.983.573.136-.093.275-.182.417-.267l3.07-1.843a5.983 5.983 0 002.813-4.072l.004-.023.665-3.787a.519.519 0 00-.421-.6.54.54 0 00-.373.072 7.096 7.096 0 01-.218.128l-2.97 1.667a6.797 6.797 0 00-3.372 4.751l-.002.009-.595 3.392zm3.366 44.248c-.443 2.521-4.359 3.941-8.746 3.171-4.388-.77-7.586-3.438-7.144-5.96.443-2.52 7.33-18.192 11.717-17.422 4.388.77 4.615 17.69 4.173 20.211z" fill="#F5CB60"/><ellipse cx="24.365" cy="90.159" rx="6.203" ry="3.638" transform="matrix(.98493 .17277 -.17294 .98496 15.96 -2.854)" fill="#ECB833"/></svg>