<svg width="144" height="144" viewBox="0 0 144 144" fill="none" xmlns="http://www.w3.org/2000/svg"><g clip-path="url(#clip0)"><path opacity=".1" fill-rule="evenodd" clip-rule="evenodd" d="M81.529 105.409c3.112-2.858 6.909-6.815 7.874-9.52.293-.82.501-1.79.719-2.803.98-4.57 2.154-10.045 12.188-6.876.162.05.323.102.482.152 11.923 3.763 17.226 5.437 14.361 13.398-1.417 3.937-7.468 7.513-13.583 10.143 6.034 2.521 9.71 5.868 9.71 9.541 0 7.841-16.757 14.197-37.429 14.197s-37.43-6.356-37.43-14.197c0-7.841 16.758-14.198 37.43-14.198 1.93 0 3.826.056 5.678.163z" fill="#000"/><path fill-rule="evenodd" clip-rule="evenodd" d="M107.148 25.299c1.474 6.488-7.374 17.108-15.926 20.644-5.122 2.118-6.949 7.69-10.567 12.555l-7.3-4.53c3.095-2.536 4.422-5.22 3.99-7.081-1.96-8.447 5.413-21.043 13.194-25.652 7.368-4.365 15.135-2.424 16.609 4.064z" fill="#BE1C1C"/><path d="M83.062 53.139c1.789-2.072 4.502-5.812 8.318-7.419 8.564-3.606 20.192-16.587 14.68-22.74-5.511-6.154-14.992 1.03-15.896 2.8" stroke="#FF5B4C" stroke-width="1.77" stroke-linecap="round"/><path fill-rule="evenodd" clip-rule="evenodd" d="M107.223 22.873a.27.27 0 01-.385.36c-4.315-2.826-10.368-2.036-13.037 2.377a34.877 34.877 0 00-3.466 7.652c-2.556 8.124-1.212 12.352-6.677 21.817L73.44 50.983c1.07-1.719 1.81-3.15 2.044-5.388 1.254-12.025-4.224-15.256 1.577-27.376 7.14-11.54 22.254-9.402 30.162 4.654z" fill="#FF5B4C"/><ellipse cx="62.509" cy="89.331" rx="33.742" ry="28.484" transform="rotate(110.713 62.509 89.3309)" fill="#E4A038"/><path d="M66.12 55.32l.44-.76a5.843 5.843 0 017.98-2.138l6.452 3.724a5.843 5.843 0 012.139 7.982l-1.9 3.289" stroke="#E4A038" stroke-width="5.843"/><ellipse cx="56.822" cy="87.124" rx="33.742" ry="28.484" transform="rotate(110.713 56.8215 87.1241)" fill="#FFF158"/><ellipse cx="56.817" cy="87.124" rx="27.217" ry="22.975" transform="rotate(110.713 56.8173 87.1242)" fill="#FFCF24"/><path fill-rule="evenodd" clip-rule="evenodd" d="M46.245 112.205c-8.486-6.232-11.731-18.994-7.177-31.038 5.317-14.06 19.248-21.82 31.117-17.332.32.121.635.25.945.386a19.63 19.63 0 00-4.687-2.545c-11.868-4.488-25.8 3.271-31.116 17.33-5.173 13.681-.283 28.286 10.918 33.199z" fill="#E4A038"/><path d="M74.907 47.749a.647.647 0 01.884-.237l8.59 4.96c.31.179.416.575.238.884l-3.69 6.392a1.46 1.46 0 01-1.996.535l-7.182-4.146a1.46 1.46 0 01-.535-1.996l3.691-6.392z" fill="#E43A3A"/><path d="M61.805 100.112c1.008.582 1.603 1.258 1.786 2.029.182.771-.015 1.656-.592 2.655-1.185 2.052-2.752 2.516-4.701 1.39l-11.663-6.733c-1.949-1.125-2.331-2.714-1.146-4.767.577-.999 1.244-1.612 2.003-1.84.759-.227 1.642-.05 2.65.533l2.723 1.571 8.671-15.02-3.817.404c-.541.057-1.014-.03-1.417-.263-.627-.362-.973-1.006-1.036-1.93a4.77 4.77 0 01.648-2.677c.657-1.137 1.546-1.77 2.666-1.9l7.612-.765c1.386-.124 2.516.066 3.39.57.896.518 1.42 1.265 1.574 2.241.176.99-.065 2.052-.721 3.19L59.049 98.52l2.756 1.592z" fill="#E4A038"/><path fill="#E4A038" d="M65.043 70.743l4.772 2.755-1.18 2.045-4.773-2.755z"/><path fill="#E4A038" d="M53.137 75.58l4.954 2.86-1.17 2.027-4.954-2.86z"/><path d="M57.523 97.634c1.009.582 1.604 1.259 1.786 2.03.183.771-.014 1.655-.591 2.654-1.185 2.053-2.752 2.516-4.702 1.391l-11.662-6.734c-1.95-1.125-2.331-2.714-1.146-4.766.576-1 1.244-1.612 2.003-1.84.758-.227 1.642-.05 2.65.532l2.723 1.572 8.671-15.02-3.818.403c-.54.058-1.013-.03-1.416-.263-.627-.362-.973-1.005-1.037-1.93a4.77 4.77 0 01.65-2.676c.656-1.137 1.544-1.77 2.665-1.9l7.611-.765c1.386-.124 2.516.066 3.39.57.897.518 1.421 1.264 1.575 2.24.175.99-.065 2.053-.721 3.19L54.768 96.043l2.755 1.591z" fill="#FFF158"/><path d="M75.957 47.664l1.352.78" stroke="#BE1C1C" stroke-width="1.338" stroke-linecap="round"/><path d="M79.434 49.673l1.352.78" stroke="#BE1C1C" stroke-width="1.338" stroke-linecap="round"/><path d="M82.715 51.57l1.352.78" stroke="#BE1C1C" stroke-width="1.338" stroke-linecap="round"/><path d="M83.971 25.809c1.434-3.433 3.915-5.308 6.243-6.306 1.205-.516.76-3.191-.339-3.905-3.454-2.246-7.37-1.378-9.588 2.095-6.245 9.783 1.074 14.365 3.684 8.116z" fill="#FF564C"/></g><defs><clipPath id="clip0"><path fill="#fff" transform="translate(9 9)" d="M0 0h126v126H0z"/></clipPath></defs></svg>